<svg xmlns="http://www.w3.org/2000/svg" width="17" height="17" viewBox="0 0 17 17"><defs><style>.a{fill:rgba(0,0,0,0);}.b{fill:#2c91f5;}</style></defs><path class="a" d="M0,0H17V17H0Z"/><path class="b" d="M14.1,6.833H12.333V5.417A1.421,1.421,0,0,0,10.917,4h-8.5A1.421,1.421,0,0,0,1,5.417v6.375a1.421,1.421,0,0,0,1.417,1.417,2.125,2.125,0,1,0,4.25,0h4.25a2.125,2.125,0,0,0,4.25,0h.708a.71.71,0,0,0,.708-.708V10.141a1.425,1.425,0,0,0-.283-.85L14.671,7.117A.718.718,0,0,0,14.1,6.833ZM4.542,13.917a.708.708,0,1,1,.708-.708A.71.71,0,0,1,4.542,13.917ZM14.1,7.9l1.388,1.771H12.333V7.9Zm-1.062,6.021a.708.708,0,1,1,.708-.708A.71.71,0,0,1,13.042,13.917Z" transform="translate(-0.292 -1.167)"/></svg>