<svg xmlns="http://www.w3.org/2000/svg" width="16" height="16" viewBox="0 0 16 16"><defs><style>.a{fill:none;}.b{fill:#505050;}</style></defs><path class="a" d="M0,0H16V16H0Z"/><path class="b" d="M8.667,2a5.667,5.667,0,0,0,0,11.333H9v2c3.24-1.56,5.333-4.667,5.333-7.667A5.67,5.67,0,0,0,8.667,2Zm.667,9.667H8V10.333H9.333ZM9.6,8.48a.146.146,0,0,0-.02.033c-.033.053-.067.107-.093.16a.239.239,0,0,0-.027.073,1.2,1.2,0,0,0-.053.14,1.406,1.406,0,0,0-.067.453H8a2.722,2.722,0,0,1,.133-.867.024.024,0,0,1,.007-.02c.007-.027.027-.04.033-.067a1.508,1.508,0,0,1,.147-.293c.02-.033.047-.067.067-.1a.832.832,0,0,1,.053-.08l.007.007c.56-.733,1.473-.96,1.547-1.787a1.353,1.353,0,0,0-1.047-1.42,1.331,1.331,0,0,0-1.533.853A.647.647,0,0,1,6.827,6H6.693a.611.611,0,0,1-.58-.78A2.668,2.668,0,0,1,9.067,3.36a2.705,2.705,0,0,1,2.22,2.22C11.58,7.207,10.2,7.6,9.6,8.48Z" transform="translate(-1 -0.667)"/></svg>