<svg xmlns="http://www.w3.org/2000/svg" width="85.578" height="66.201" viewBox="0 0 85.578 66.201">
  <path id="Camera" d="M79.136,73.2H8.442A7.621,7.621,0,0,1,1,65.413V22.577a7.621,7.621,0,0,1,7.442-7.788H10.3a3.812,3.812,0,0,1,3.721-3.894h3.721a3.812,3.812,0,0,1,3.721,3.894h3.721a6.744,6.744,0,0,0,3.721-1.947l3.721-3.894A5.124,5.124,0,0,1,36.347,7H51.23a4.7,4.7,0,0,1,3.721,1.947l3.721,3.894a6.744,6.744,0,0,0,3.721,1.947H79.136a7.621,7.621,0,0,1,7.442,7.788V65.413A7.621,7.621,0,0,1,79.136,73.2Zm3.721-50.624a3.812,3.812,0,0,0-3.721-3.894l-17.155-.025a10.272,10.272,0,0,1-5.94-3.063l-3.963-4.147-.193-.294a1.1,1.1,0,0,0-.655-.259H36.347a1.5,1.5,0,0,0-.789.45l-.14.187-3.883,4.062a10.269,10.269,0,0,1-5.94,3.063l-7.722.012c-.045,0-.087.016-.13.016H14.023c-.026,0-.048-.008-.074-.008l-5.507.008a3.812,3.812,0,0,0-3.721,3.894V65.413a3.812,3.812,0,0,0,3.721,3.894H79.136a3.812,3.812,0,0,0,3.721-3.894ZM43.789,65.413c-11.3,0-20.464-9.589-20.464-21.418s9.162-21.418,20.464-21.418,20.464,9.589,20.464,21.418S55.091,65.413,43.789,65.413Zm0-38.942c-9.248,0-16.743,7.845-16.743,17.524s7.5,17.524,16.743,17.524,16.743-7.845,16.743-17.524S53.037,26.471,43.789,26.471Zm0,27.259a9.746,9.746,0,0,1,0-19.471,9.746,9.746,0,0,1,0,19.471Zm0-15.577a5.847,5.847,0,1,0,5.581,5.841A5.718,5.718,0,0,0,43.789,38.153ZM17.743,30.365H10.3a1.9,1.9,0,0,1-1.86-1.947V24.524a1.9,1.9,0,0,1,1.86-1.947h7.442a1.9,1.9,0,0,1,1.86,1.947v3.894A1.9,1.9,0,0,1,17.743,30.365Z" transform="translate(-1 -7)" fill="#ededed" fill-rule="evenodd"/>
</svg>
